<?xml version="1.0" standalone="no"?><!DOCTYPE svg PUBLIC "-//W3C//DTD SVG 1.1//EN" "http://www.w3.org/Graphics/SVG/1.1/DTD/svg11.dtd"><svg t="1683353796746" class="icon" viewBox="0 0 2331 1024" version="1.1" xmlns="http://www.w3.org/2000/svg" p-id="9704" xmlns:xlink="http://www.w3.org/1999/xlink" width="582.75" height="256"><path d="M791.378708 525.028431c0 198.057354 166.155815 358.620554 371.0976 358.620554 204.957538 0 371.113354-160.5632 371.113354-358.620554 0-198.073108-166.155815-358.636308-371.113354-358.636308-204.957538 0-371.0976 160.5632-371.0976 358.636308z" fill="#E2F1FF" p-id="9705"></path><path d="M1162.476308 896.126031c-211.416615 0-383.558892-166.518154-383.558893-371.0976S951.043938 153.915077 1162.476308 153.915077c211.432369 0 383.574646 166.518154 383.574646 371.0976 0 204.563692-172.142277 371.0976-383.574646 371.0976z m0-717.256862c-197.710769 0-358.620554 155.301415-358.620554 346.159262 0 190.842092 160.909785 346.143508 358.620554 346.143507 197.710769 0 358.636308-155.301415 358.636307-346.143507 0-190.857846-160.925538-346.159262-358.636307-346.159262z" fill="#82C3FF" p-id="9706"></path><path d="M935.5264 413.223385l95.263508 95.279261a19.692308 19.692308 0 0 1 0 28.215139 19.692308 19.692308 0 0 1-28.215139 0l-95.263507-95.263508a19.692308 19.692308 0 0 1 0-28.215139 19.692308 19.692308 0 0 1 28.215138 0z" fill="#82C3FF" p-id="9707"></path><path d="M1030.789908 441.454277l-95.263508 95.263508a19.692308 19.692308 0 0 1-28.215138 0 19.692308 19.692308 0 0 1 0-28.215139l95.263507-95.263508a19.692308 19.692308 0 0 1 28.215139 0 20.101908 20.101908 0 0 1 0 28.215139z" fill="#82C3FF" p-id="9708"></path><path d="M765.432123 127.149292l38.801723 38.817477a7.5776 7.5776 0 0 1 0 10.586585 7.5776 7.5776 0 0 1-10.570831 0l-38.817477-38.817477a7.5776 7.5776 0 0 1 0-10.586585 7.199508 7.199508 0 0 1 10.586585 0z" fill="#D8D8D8" p-id="9709"></path><path d="M804.233846 137.735877l-38.801723 38.817477a7.5776 7.5776 0 0 1-10.586585 0 7.5776 7.5776 0 0 1 0-10.586585l38.817477-38.817477a7.5776 7.5776 0 0 1 10.570831 0c3.528862 2.646646 3.087754 7.498831 0 10.586585z m803.178339-135.325539l38.817477 38.817477a7.5776 7.5776 0 0 1 0 10.586585 7.5776 7.5776 0 0 1-10.586585 0L1596.8256 12.996923a7.5776 7.5776 0 0 1 0-10.586585 7.199508 7.199508 0 0 1 10.586585 0z" fill="#82C3FF" p-id="9710"></path><path d="M1646.229662 12.996923l-38.817477 38.817477a7.5776 7.5776 0 0 1-10.586585 0 7.5776 7.5776 0 0 1 0-10.586585l38.817477-38.817477a7.5776 7.5776 0 0 1 10.586585 0c3.528862 2.646646 3.087754 7.498831 0 10.586585z m641.402092 673.209108l41.007261 41.023015a9.578338 9.578338 0 0 1 0 13.233231 9.578338 9.578338 0 0 1-13.23323 0l-41.007262-41.023015a9.578338 9.578338 0 0 1 0-13.233231c4.411077-3.528862 9.688615-3.528862 13.233231 0z" fill="#E2F1FF" p-id="9711"></path><path d="M2328.639015 698.998154l-41.023015 41.007261c-3.528862 3.528862-9.263262 3.985723-12.776369 0.441108a9.578338 9.578338 0 0 1 0-13.233231l41.007261-41.007261a9.578338 9.578338 0 0 1 13.233231 0c3.528862 3.528862 3.087754 9.263262-0.441108 12.792123zM142.099692 436.728123l41.007262 41.023015a9.578338 9.578338 0 0 1 0 13.233231 9.578338 9.578338 0 0 1-13.233231 0l-41.007261-41.023015a9.578338 9.578338 0 0 1 0-13.233231c4.411077-3.513108 9.704369-3.513108 13.23323 0z" fill="#E2F1FF" p-id="9712"></path><path d="M183.122708 449.520246l-41.007262 41.007262c-3.528862 3.528862-9.263262 3.985723-12.776369 0.441107a9.578338 9.578338 0 0 1 0-13.23323l41.007261-41.007262a9.578338 9.578338 0 0 1 13.233231 0c3.528862 3.528862 3.087754 9.263262-0.441107 12.792123zM348.5696 917.945108a21.834831 21.834831 0 1 0 43.638154 0.015754 21.834831 21.834831 0 0 0-43.638154 0zM803.855754 939.779938a12.477046 12.477046 0 1 0 24.954092 0 12.477046 12.477046 0 0 0-24.954092 0zM722.786462 297.3696a12.477046 12.477046 0 1 0 24.938338 0 12.477046 12.477046 0 0 0-24.938338 0zM1352.704 60.368738a12.477046 12.477046 0 1 0 24.954092 0 12.477046 12.477046 0 0 0-24.954092 0zM1614.658954 949.137723a15.596308 15.596308 0 1 0 31.192615 0 15.596308 15.596308 0 0 0-31.192615 0zM1334.697354 413.223385l95.263508 95.279261a19.692308 19.692308 0 0 1 0 28.215139 19.692308 19.692308 0 0 1-28.230893 0l-95.263507-95.263508a19.692308 19.692308 0 0 1 0-28.215139 19.692308 19.692308 0 0 1 28.230892 0z" fill="#82C3FF" p-id="9713"></path><path d="M1429.960862 441.454277l-95.263508 95.263508a19.692308 19.692308 0 0 1-28.230892 0 19.692308 19.692308 0 0 1 0-28.215139l95.263507-95.263508a19.692308 19.692308 0 0 1 28.230893 0 20.101908 20.101908 0 0 1 0 28.215139zM1012.799015 671.586462h305.608862c15.596308 0 28.073354 12.477046 28.073354 28.073353s-12.477046 28.0576-28.073354 28.0576h-305.624615c-15.580554 0-28.041846-12.461292-28.041847-28.0576 0-15.596308 12.461292-28.073354 28.041847-28.073353z" fill="#82C3FF" p-id="9714"></path><path d="M390.3488 284.908308L211.3536 629.807262v92.317538h271.296985v130.331569h121.619692v-127.228061c53.641846 1.874708 80.470646 1.874708 80.470646 0v-100.415016h-77.351385v-130.977477h-122.864246v127.858216h-139.074954l170.26757-336.785723h-125.369108z" fill="#E2F1FF" p-id="9715"></path><path d="M604.900431 861.814154h-122.249846a9.594092 9.594092 0 0 1-9.342031-9.357785v-120.989538H211.3536a9.594092 9.594092 0 0 1-9.357785-9.357785v-92.317538c0-1.2288 0.630154-3.103508 1.260308-4.348062l178.979446-344.914708a9.735877 9.735877 0 0 1 8.113231-4.978215h125.369108c3.119262 0 6.238523 1.858954 8.097477 4.363815 1.890462 2.489108 1.890462 6.238523 0.630153 9.357785L361.030892 612.9664h114.136616v-118.500431c0-4.993969 4.363815-9.357785 9.357784-9.357784h122.88c4.978215 0 9.342031 4.363815 9.342031 9.357784v120.989539h68.608c4.993969 0 9.357785 4.363815 9.357785 9.357784v100.415016c0 2.489108-1.260308 4.993969-3.119262 6.868677-3.733662 3.119262-5.608369 5.608369-77.965784 2.489107v117.870277c0.630154 4.993969-3.733662 9.357785-8.727631 9.357785z m-112.892062-18.699816h102.919877v-117.88603c0-2.489108 1.244554-4.993969 3.119262-6.852923a9.373538 9.373538 0 0 1 6.852923-2.504862c43.653908 1.874708 62.369477 1.874708 71.097107 1.260308v-82.959754h-68.608a9.594092 9.594092 0 0 1-9.34203-9.357785v-121.619692H493.883077v118.500431a9.594092 9.594092 0 0 1-9.357785 9.357784h-139.074954a10.665354 10.665354 0 0 1-8.11323-4.363815c-1.874708-2.489108-1.874708-6.238523-0.630154-9.357785l163.414646-323.694277h-104.164431L220.711385 631.681969v80.454893h261.9392c4.993969 0 9.357785 4.363815 9.357784 9.357784v121.619692z" fill="#82C3FF" p-id="9716"></path><path d="M1837.323815 284.908308l-179.010953 344.898954v92.317538h271.312738v130.331569h121.619692v-127.228061c53.641846 1.874708 80.454892 1.874708 80.454893 0v-100.415016h-77.950031v-130.977477h-122.88v127.858216h-139.074954l171.512123-336.785723h-125.983508z" fill="#E2F1FF" p-id="9717"></path><path d="M2051.875446 861.814154h-121.619692a9.594092 9.594092 0 0 1-9.357785-9.357785v-120.989538h-261.954954a9.594092 9.594092 0 0 1-9.357784-9.357785v-92.317538c0-1.2288 0.630154-3.103508 1.260307-4.348062l178.9952-344.914708a9.735877 9.735877 0 0 1 8.097477-4.978215h125.369108c3.119262 0 6.238523 1.858954 8.113231 4.363815 1.858954 2.489108 1.858954 6.238523 0.630154 9.357785l-164.0448 323.694277h114.136615v-118.500431c0-4.993969 4.363815-9.357785 9.357785-9.357784h122.88c4.978215 0 9.342031 4.363815 9.34203 9.357784v120.989539h68.608c4.993969 0 9.357785 4.363815 9.357785 9.357784v100.415016c0 2.489108-1.260308 4.993969-3.119261 6.868677-3.749415 3.119262-5.624123 5.608369-77.965785 2.489107v117.870277c0.630154 4.993969-3.749415 9.357785-8.727631 9.357785z m-112.892061-18.699816h102.904123v-117.88603c0-2.489108 1.260308-4.993969 3.119261-6.852923a9.373538 9.373538 0 0 1 6.868677-2.504862c43.653908 1.874708 62.369477 1.874708 71.097108 1.260308v-82.959754h-68.608a9.594092 9.594092 0 0 1-9.357785-9.357785v-121.619692H1940.873846v118.500431a9.594092 9.594092 0 0 1-9.357784 9.357784h-139.090708a10.665354 10.665354 0 0 1-8.097477-4.363815c-1.890462-2.489108-1.890462-6.238523-0.630154-9.357785l163.414646-323.694277h-104.778831l-175.261538 338.046031v80.454893h261.954954c4.978215 0 9.342031 4.363815 9.342031 9.357784v121.619692h0.630153zM404.700554 995.910892h124.738954c6.852923 0 12.461292 5.608369 12.461292 12.477046a12.508554 12.508554 0 0 1-12.461292 12.477047h-124.738954a12.508554 12.508554 0 0 1-12.477046-12.477047c0-6.868677 5.608369-12.477046 12.477046-12.477046zM1826.721477 995.910892h124.738954c6.852923 0 12.477046 5.608369 12.477046 12.477046a12.508554 12.508554 0 0 1-12.477046 12.477047h-124.738954a12.508554 12.508554 0 0 1-12.477046-12.477047c0-6.868677 5.608369-12.477046 12.477046-12.477046zM604.270277 995.910892h1147.604677c6.852923 0 12.477046 5.608369 12.477046 12.477046a12.508554 12.508554 0 0 1-12.477046 12.477047H604.270277a12.508554 12.508554 0 0 1-12.461292-12.477047c0-6.868677 5.608369-12.477046 12.461292-12.477046zM1504.271754 801.319385c-101.045169 0-249.477908-39.290092-369.853046-89.182523-191.472246-79.210338-419.131077-221.420308-452.797046-306.86917-5.624123-14.966154-6.238523-28.0576-1.260308-39.290092 34.311877-77.950031 157.176123-44.898462 162.170092-43.653908a12.477046 12.477046 0 0 1 8.727631 15.596308 12.477046 12.477046 0 0 1-15.596308 8.727631c-1.244554 0-107.283692-28.687754-132.836431 29.302154-2.504862 4.993969-1.890462 11.862646 1.858954 19.975877 30.562462 76.091077 256.976738 217.655138 439.0912 293.131815 224.523815 92.931938 389.183015 99.784862 434.081477 74.216369 8.743385-4.993969 9.987938-9.357785 9.987939-12.477046 0.630154-10.602338-8.727631-36.170831-81.085046-91.687385-5.608369-4.363815-6.238523-11.846892-2.489108-17.455261 4.363815-5.608369 11.846892-6.238523 17.455261-2.489108 64.244185 49.262277 92.947692 85.433108 91.057231 113.506462-0.630154 9.357785-4.978215 22.449231-23.063631 32.437169-19.960123 11.216738-49.908185 16.226462-85.448861 16.226461z" fill="#82C3FF" p-id="9718"></path></svg>