<?xml version="1.0" standalone="no"?><!DOCTYPE svg PUBLIC "-//W3C//DTD SVG 1.1//EN" "http://www.w3.org/Graphics/SVG/1.1/DTD/svg11.dtd"><svg t="1683354548426" class="icon" viewBox="0 0 1024 1024" version="1.1" xmlns="http://www.w3.org/2000/svg" p-id="30863" xmlns:xlink="http://www.w3.org/1999/xlink" width="256" height="256"><path d="M402 401m-177 0a177 177 0 1 0 354 0 177 177 0 1 0-354 0Z" fill="#FFE1E1" p-id="30864"></path><path d="M622.2 548.2L786.1 712c25.3 25.3 28.9 64.5 5.7 87.7s-62.4 19.7-87.7-5.7L538.2 628.2c-39.9 24-86.7 37.8-136.7 37.8C254.9 666 136 547.1 136 400.5S254.9 135 401.5 135 667 253.9 667 400.5c0 54.6-16.5 105.4-44.8 147.7zM600 576.9c-9.8 11-20.4 21.1-31.9 30.4l161.4 161.4c12.2 12.2 28.7 13.7 36.8 5.7s6.5-24.6-5.7-36.8L600 576.9zM401.5 630C528.2 630 631 527.2 631 400.5S528.2 171 401.5 171 172 273.8 172 400.5 274.8 630 401.5 630z m0.5-433c9.9 0 18 8.1 18 18s-8.1 18-18 18c-92.8 0-168 75.2-168 168s75.2 168 168 168c9.9 0 18 8.1 18 18s-8.1 18-18 18c-112.7 0-204-91.3-204-204S289.3 197 402 197z m70.6 398.3c-9.3 3.6-19.7-1.1-23.3-10.3-3.6-9.3 1.1-19.7 10.3-23.3 3-1.1 5.9-2.5 8.7-3.9 8.8-4.7 19.7-1.3 24.3 7.5 4.7 8.8 1.3 19.7-7.5 24.3-4 2.1-8.2 4-12.5 5.7z" fill="#5483E3" p-id="30865"></path></svg>